<svg xmlns="http://www.w3.org/2000/svg" width="19" height="16.071" viewBox="0 0 19 16.071">
  <g id="_007" data-name="007" transform="translate(0 -0.5)">
    <path id="Path_461" data-name="Path 461" d="M413.949,98.465h3.209V107.8h-3.209Zm0,0" transform="translate(-398.159 -94.758)" fill="#646d82"/>
    <path id="Path_462" data-name="Path 462" d="M421.6,1.718a.491.491,0,0,0-.876,0l-.977,1.925h2.83Zm0,0" transform="translate(-403.763 -0.918)" fill="#646d82"/>
    <path id="Path_463" data-name="Path 463" d="M413.949,392.2a1.31,1.31,0,0,0,1.313,1.3h.583a1.31,1.31,0,0,0,1.313-1.3v-1.244h-3.209Zm0,0" transform="translate(-398.159 -376.93)" fill="#646d82"/>
    <path id="Path_464" data-name="Path 464" d="M12.291.5H2.484A2.362,2.362,0,0,0,0,2.71V14.361a2.362,2.362,0,0,0,2.485,2.21h9.806a2.362,2.362,0,0,0,2.485-2.21V2.71A2.362,2.362,0,0,0,12.291.5ZM6.415,13.186H2.961a.518.518,0,1,1,0-1.03H6.415a.518.518,0,1,1,0,1.03Zm0-2.094H2.961a.518.518,0,1,1,0-1.03H6.415a.518.518,0,1,1,0,1.03Zm0-2.059H2.961a.518.518,0,1,1,0-1.03H6.415a.518.518,0,1,1,0,1.03Zm0-2.059H2.961a.55.55,0,0,1-.579-.515.55.55,0,0,1,.579-.515H6.415a.55.55,0,0,1,.579.515A.55.55,0,0,1,6.415,6.974Zm0-2.059H2.961A.55.55,0,0,1,2.383,4.4a.55.55,0,0,1,.579-.515H6.415a.55.55,0,0,1,.579.515A.55.55,0,0,1,6.415,4.915Zm3.608,8.271H8.359a.518.518,0,1,1,0-1.03h1.664a.518.518,0,1,1,0,1.03Zm1.791-6.212H8.359a.55.55,0,0,1-.579-.515.55.55,0,0,1,.579-.515h3.454a.55.55,0,0,1,.579.515A.55.55,0,0,1,11.814,6.974Zm0-2.059H8.359A.55.55,0,0,1,7.781,4.4a.55.55,0,0,1,.579-.515h3.454a.55.55,0,0,1,.579.515A.55.55,0,0,1,11.814,4.915Zm0,0" fill="#646d82"/>
  </g>
</svg>
