<svg xmlns="http://www.w3.org/2000/svg" width="16.568" height="19.789" viewBox="0 0 16.568 19.789">
  <path id="_006" data-name="006" d="M107.207,48.464a25.9,25.9,0,0,1,3.878,4.08c3.118,4.394-1.318,8.857-7.258,8.777-5.94.08-10.375-4.383-7.258-8.777a25.9,25.9,0,0,1,3.878-4.08,2.66,2.66,0,0,0,.655.081h5.448A2.66,2.66,0,0,0,107.207,48.464Zm-6.1-.687a1,1,0,1,1,0-1.96h5.448a1,1,0,1,1,0,1.96Zm2.661,8.935a2.268,2.268,0,0,1-1.007-.239,1.047,1.047,0,0,1-.535-.6.573.573,0,0,0-.67-.325.448.448,0,0,0-.405.538,1.959,1.959,0,0,0,1,1.131,3.347,3.347,0,0,0,1.1.346v.346a.568.568,0,0,0,1.11,0v-.337a3.487,3.487,0,0,0,1.361-.436,1.377,1.377,0,0,0,.757-1.23,1.392,1.392,0,0,0-.013-.164,1.655,1.655,0,0,0-1.023-1.24,5.152,5.152,0,0,0-1.541-.407,3.294,3.294,0,0,1-1.046-.281.644.644,0,0,1-.4-.53.7.7,0,0,1,.356-.629,1.7,1.7,0,0,1,.653-.237,2.2,2.2,0,0,1,.3-.027h.073a2.182,2.182,0,0,1,.408.043,1.382,1.382,0,0,1,.986.68.611.611,0,0,0,.726.238.419.419,0,0,0,.3-.583,2.439,2.439,0,0,0-1.74-1.2q-.08-.016-.162-.029v-.345a.568.568,0,0,0-1.11,0v.352a2.953,2.953,0,0,0-1.133.418,1.5,1.5,0,0,0-.764,1.36,1.48,1.48,0,0,0,.9,1.233,4.516,4.516,0,0,0,1.471.413,3.926,3.926,0,0,1,1.146.292.791.791,0,0,1,.494.582.745.745,0,0,1,.009.08.571.571,0,0,1-.319.5,2.283,2.283,0,0,1-.93.27c-.093.009-.175.014-.244.016h-.026l-.047,0ZM101.1,45.048c-1.53-1.228.03-2.651.524-2.4a.763.763,0,0,0,.6.043.55.55,0,0,0,.384-.368,1.344,1.344,0,0,1,2.453,0,.549.549,0,0,0,.383.368.762.762,0,0,0,.6-.043,1.5,1.5,0,0,1,1.566.135h0a.876.876,0,0,1,0,1.425l-1.042.837H101.1Z" transform="translate(-95.544 -41.533)" fill="#646d82" fill-rule="evenodd"/>
</svg>
