<svg xmlns="http://www.w3.org/2000/svg" width="28.872" height="23.349" viewBox="0 0 28.872 23.349">
  <g id="Group_12" data-name="Group 12" transform="translate(-1607.844 -50.032)">
    <path id="Path_437" data-name="Path 437" d="M2.727,1.716a5.513,5.513,0,0,1-1.874-.3A3.1,3.1,0,0,1-.528.434,10.387,10.387,0,0,1-1.449-.882a7.289,7.289,0,0,1-.658-1.743A17.523,17.523,0,0,1-2.5-4.4q-.1-.658-.3-1.907-.263-1.71-.395-2.532a13.942,13.942,0,0,0-.559-2.1,5.474,5.474,0,0,0-.986-1.907,5.026,5.026,0,0,0-1.578-1.118,5.456,5.456,0,0,0-2.4-.493,5.456,5.456,0,0,0-2.4.493,5.026,5.026,0,0,0-1.578,1.118,5.474,5.474,0,0,0-.986,1.907,13.942,13.942,0,0,0-.559,2.1q-.132.822-.395,2.532-.2,1.249-.3,1.907a17.523,17.523,0,0,1-.395,1.775,7.289,7.289,0,0,1-.658,1.743A10.387,10.387,0,0,1-16.9.434a3.1,3.1,0,0,1-1.381.986,5.513,5.513,0,0,1-1.874.3V.335A2.882,2.882,0,0,0-17.3-1.21a19.175,19.175,0,0,0,1.282-5.228q.263-1.447.395-2.2t.46-2.071a6.431,6.431,0,0,1,.822-2.038A16.1,16.1,0,0,1-13.12-14.3a4.063,4.063,0,0,1,1.841-1.184,8.328,8.328,0,0,1,2.565-.362,6.756,6.756,0,0,1,2.992.625A6.178,6.178,0,0,1-3.75-13.8a6.99,6.99,0,0,1,1.216,2.3,16.886,16.886,0,0,1,.69,2.433q.164.921.427,2.63.2,1.512.362,2.334T-.594-2.3A4.443,4.443,0,0,0,.1-.816,3.09,3.09,0,0,0,1.149.006,3.5,3.5,0,0,0,2.727.335Zm-9.074,1.71a3.093,3.093,0,0,1-2.367.986,3.2,3.2,0,0,1-2.4-.986A3.365,3.365,0,0,1-12.068.993h1.315a1.968,1.968,0,0,0,.592,1.447,1.968,1.968,0,0,0,1.447.592,1.968,1.968,0,0,0,1.447-.592A1.968,1.968,0,0,0-6.676.993h1.315A3.306,3.306,0,0,1-6.347,3.426ZM-20.156.335H2.727V1.716H-20.156ZM-7.4-15.841q0,1.052-1.315,1.052t-1.315-1.052a1.262,1.262,0,0,1,.395-.921,1.262,1.262,0,0,1,.921-.395,1.4,1.4,0,0,1,.69.164,1.118,1.118,0,0,1,.46.493A1.459,1.459,0,0,1-7.4-15.841Z" transform="translate(1628 68.969)" fill="#2e4765"/>
    <g id="Circle_BG" data-name="Circle BG" transform="translate(1623.494 52.032)" fill="#d80003">
      <path d="M 5.611217021942139 12.22243690490723 C 1.965777039527893 12.22243690490723 -1.000002980232239 9.256656646728516 -1.000002980232239 5.611217021942139 C -1.000002980232239 1.965777039527893 1.965777039527893 -1.000002980232239 5.611217021942139 -1.000002980232239 C 9.256656646728516 -1.000002980232239 12.22243690490723 1.965777039527893 12.22243690490723 5.611217021942139 C 12.22243690490723 9.256656646728516 9.256656646728516 12.22243690490723 5.611217021942139 12.22243690490723 Z" stroke="none"/>
      <path d="M 5.611217021942139 -2.86102294921875e-06 C 2.512227058410645 -2.86102294921875e-06 -2.86102294921875e-06 2.512227058410645 -2.86102294921875e-06 5.611217021942139 C -2.86102294921875e-06 8.710206985473633 2.512227058410645 11.22243690490723 5.611217021942139 11.22243690490723 C 8.710206985473633 11.22243690490723 11.22243690490723 8.710206985473633 11.22243690490723 5.611217021942139 C 11.22243690490723 2.512227058410645 8.710206985473633 -2.86102294921875e-06 5.611217021942139 -2.86102294921875e-06 M 5.611217021942139 -2.000002861022949 C 9.808056831359863 -2.000002861022949 13.22243690490723 1.414377212524414 13.22243690490723 5.611217021942139 C 13.22243690490723 9.808056831359863 9.808056831359863 13.22243690490723 5.611217021942139 13.22243690490723 C 1.414377212524414 13.22243690490723 -2.000002861022949 9.808056831359863 -2.000002861022949 5.611217021942139 C -2.000002861022949 1.414377212524414 1.414377212524414 -2.000002861022949 5.611217021942139 -2.000002861022949 Z" stroke="none" fill="#fff"/>
    </g>
  </g>
</svg>
