<svg xmlns="http://www.w3.org/2000/svg" xmlns:xlink="http://www.w3.org/1999/xlink" version="1.1" x="0px" y="0px" viewBox="0 0 512 640" style="enable-background:new 0 0 512 512;" xml:space="preserve"><g><path d="M473.659,130.835c-6.959-8.826-11.612-21.927-14.302-31.384c-1.359-4.732-2.361-9.978-3.061-16.014   c-3.184-27.579-23.801-34.34-24.487-34.557c-15.222-5.355-39.819-16.485-40.052-16.594c-1.729-0.783-3.733-0.239-5.312,0.87   c-1.592,1.101-2.539,3.341-2.539,5.34c0,8.181-14.783,25.688-27.04,37.499c-12.257-11.819-27.04-29.355-27.04-37.92   c0.11-2.058-0.796-4.022-2.388-5.203c-1.592-1.174-3.624-1.406-5.463-0.587c-0.233,0.109-24.83,11.239-39.874,16.536   c-0.865,0.275-21.481,7.036-24.666,34.608c-0.7,6.043-1.702,11.29-3.061,16.036c-2.69,9.442-7.343,22.543-14.302,31.369   c-1.839,2.333-1.716,5.754,0.288,7.935c0.921,1,21.327,22.422,46.815,18.494c4.502,33.922,7.689,83.874-3.77,125.467   c-0.714,2.551,0.288,5.29,2.416,6.696c13.644,8.993,40.725,14.55,70.758,14.55c0.206,0,0.398,0,0.59,0   c30.032-0.007,57.141-5.58,70.744-14.55c2.128-1.406,3.13-4.145,2.416-6.696c-11.423-41.463-8.293-91.23-3.813-125.147   c2.136,0.334,4.238,0.49,6.298,0.49c22.483,0,39.709-18.384,40.56-19.304C475.375,136.589,475.498,133.169,473.659,130.835z    M295.399,281.441c3.928-15.8,5.909-32.576,6.709-49.194c19.559,12.186,31.953,34.285,32.32,58.572   C318.441,289.17,304.315,285.979,295.399,281.441z M362.669,291.994c-1.836,0.045-3.657,0.113-5.516,0.114   c-3.843-0.034-7.643-0.186-11.406-0.39c-0.071-31.009-16.988-59.112-43.244-72.673c0.069-6.568-0.004-13.056-0.246-19.399   c35.826,14.533,60.414,51.248,60.414,92.267C362.67,291.939,362.669,291.967,362.669,291.994z M428.209,145.725   c2.591-16.599,5.095-27.341,5.177-27.628l-5.326-1.877l-4.735-3.196c-1.716,2.833-23.005,95.977-4.996,168.418   c-9.938,5.051-26.082,8.629-44.44,10.014c-0.19-47.536-29.755-89.992-72.319-104.787c-0.914-13.534-2.337-26.077-3.897-36.842   c-0.033-0.44-0.002-0.879-0.133-1.318c-0.015-0.047-0.05-0.079-0.065-0.126c-3.041-20.565-6.43-34.297-7.072-35.359l-4.735,3.196   l-5.326,1.877c0.082,0.287,2.586,11.032,5.178,27.635c-14.371,2.14-27.473-6.786-33.522-11.917   c6.328-9.804,10.583-21.92,13.136-30.927c1.551-5.384,2.677-11.275,3.473-18.014c2.265-19.637,16.155-24.492,16.883-24.731   c10.747-3.783,25.887-10.297,34.521-14.101c5.888,16.985,28.193,37.854,33.189,42.391c2.114,1.899,5.216,1.899,7.33,0   c4.941-4.485,26.779-24.927,32.97-42.485c8.592,3.783,23.938,10.391,34.878,14.239c0.59,0.196,14.481,5.051,16.746,24.695   c0.796,6.732,1.922,12.623,3.473,17.992c2.553,9.022,6.808,21.137,13.136,30.942C455.657,138.953,442.67,147.895,428.209,145.725z"/><path d="M401.433,123.183H364.99c-2.718,0-4.914,2.326-4.914,5.196v35.652c0,2,1.084,3.819,2.786,4.681l18.228,9.246   c0.673,0.341,1.4,0.514,2.128,0.514s1.455-0.174,2.128-0.514l18.214-9.246c1.702-0.862,2.786-2.681,2.786-4.681v-35.652   C406.346,125.509,404.15,123.183,401.433,123.183z M396.519,160.762l-13.3,6.754l-13.314-6.754v-27.188h26.615V160.762z"/><path d="M115.987,277.137c0.603-0.212,1.116-0.565,1.586-0.961c0.051-0.043,0.112-0.053,0.161-0.098   c0.86-0.776,1.378-1.842,1.633-2.994c0.027-0.117,0.142-0.175,0.161-0.295l2.169-13.761c3.106-19.808,9.105-58.114,14.118-71.487   c6.262,15.512,14.267,64.968,17.52,85.059l0.027,0.239c0.02,0.12,0.133,0.174,0.159,0.29c0.401,1.825,1.578,3.423,3.383,4.058   c13.232,4.645,24.419,6.304,33.67,6.304c22.497,0,33.437-9.848,34.068-10.435c1.016-0.942,1.647-2.254,1.757-3.674   c3.322-38.623,6.973-84.115,6.973-84.129c8.579-92.23-7.851-129.737-8.565-131.288c-0.02-0.044-0.06-0.069-0.081-0.112   c-0.088-0.184-0.219-0.332-0.327-0.505c-0.18-0.287-0.374-0.541-0.599-0.784c-0.119-0.13-0.204-0.293-0.334-0.409   c-0.142-0.128-0.317-0.201-0.472-0.312c-0.263-0.188-0.526-0.341-0.816-0.477c-0.17-0.08-0.318-0.194-0.494-0.255   c-0.049-0.017-0.081-0.058-0.131-0.073c-23.375-7.311-54.094-11.384-86.542-11.471c-31.309,0.283-61.026,4.341-83.66,11.427   c-0.052,0.016-0.087,0.059-0.138,0.077c-0.169,0.058-0.312,0.168-0.476,0.245c-0.291,0.137-0.553,0.289-0.817,0.479   c-0.159,0.114-0.341,0.19-0.485,0.321c-0.131,0.118-0.218,0.284-0.339,0.416c-0.218,0.237-0.403,0.484-0.58,0.762   c-0.111,0.177-0.245,0.326-0.337,0.514c-0.021,0.044-0.061,0.07-0.081,0.114c-0.714,1.551-17.157,39.057-8.592,131.208   c0,0,3.651,45.535,7,84.216c0.11,1.413,0.741,2.725,1.757,3.667c0.631,0.587,11.557,10.435,34.054,10.435   C91.554,283.449,102.755,281.789,115.987,277.137z M137.139,93.21c-0.239-0.035-0.452-0.149-0.701-0.149   c-0.233,0-0.433,0.11-0.659,0.14c-12.17-0.012-23.916-0.636-35.317-1.555V70.808c11.176,1.159,22.599,1.908,34.144,1.951   c0.131,0.012,0.243,0.083,0.377,0.084l2.031,0.007c0.084,0,0.154-0.046,0.238-0.051h2.645c10.98-0.077,21.856-0.849,32.531-1.952   v20.859c-10.109,0.81-20.462,1.4-31.158,1.491L137.139,93.21z M222.871,184.24c0,0.007-3.486,43.564-6.753,81.629   c-4.971,3.347-21.775,11.659-52.921,1.63c-9.371-57.594-15.112-82.488-21.501-90.964l0.013-72.22   c14.057-0.13,27.677-0.995,40.672-2.333c1.09,7.447,2.787,14.026,5.503,19.557c5.339,10.935,13.616,17.21,22.703,17.21   c5.013,0,9.973-1.527,14.638-4.347C225.265,148.769,224.64,165.235,222.871,184.24z M182.97,90.772v-21.02   c1.878-0.256,3.625-0.646,5.477-0.933V90.2C186.654,90.419,184.795,90.576,182.97,90.772z M223.106,95.233   c0.854,7.341,1.514,15.937,1.868,25.721l-1.073,0.961c-4.255,3.783-8.743,5.703-13.314,5.703c-5.01,0-9.869-4.072-13.342-11.188   c-2.126-4.334-3.477-9.638-4.388-15.655C203.74,99.345,213.852,97.473,223.106,95.233z M198.988,67.022   c6.184-1.193,12.088-2.579,17.782-4.119c1.265,3.992,3.133,11.061,4.801,21.304c-6.981,1.719-14.558,3.172-22.583,4.415V67.022z    M135.038,50.699c21.819,0.055,42.62,2.068,60.915,5.576c-17.559,3.314-36.742,5.26-56.097,5.395h-3.981   c-20.376,0-40.553-1.955-58.93-5.427C94.469,52.887,114.282,50.887,135.038,50.699z M89.921,69.67v21.107   c-1.868-0.2-3.646-0.445-5.477-0.669V68.754C86.291,69.04,88.048,69.413,89.921,69.67z M56.135,62.854   c5.698,1.542,11.586,2.943,17.768,4.137v21.584c-8.016-1.245-15.585-2.701-22.576-4.425C52.998,73.911,54.869,66.844,56.135,62.854   z M49.788,95.173c9.256,2.245,19.391,4.088,30.251,5.522c-0.91,6.028-2.261,11.346-4.379,15.699   c-3.473,7.109-8.345,11.181-13.355,11.181c-4.502,0-9.1-1.971-13.3-5.725l-1.09-0.965C48.27,111.105,48.932,102.511,49.788,95.173z    M47.661,134.349c4.664,2.824,9.625,4.356,14.643,4.356c9.087,0,17.377-6.275,22.717-17.217c2.698-5.531,4.391-12.094,5.482-19.512   c12.943,1.336,26.613,2.081,40.664,2.232l-0.012,69.858c-1.115,0.829-1.859,2.002-2.043,3.379   c-5.834,9.003-10.374,32.21-17.819,79.767l-1.621,10.247c-3.51,1.133-6.896,2.119-10.043,2.813   c2.377-8.62,3.507-17.543,3.373-26.633c-0.538-36.593-22.445-69.426-54.639-82.608C47.857,151.397,47.637,142.507,47.661,134.349z    M62.238,268.69c-2.439-1.034-4.312-2.087-5.452-2.857c-1.791-20.792-3.64-43.17-4.955-59.259   c9.8,9.688,15.606,23.085,15.812,37.643C67.776,252.77,65.838,261.126,62.238,268.69z M72.644,271.57   c3.719-8.605,5.685-17.97,5.541-27.527c-0.304-21.467-10.609-40.878-27.581-52.544c-0.377-4.646-0.595-7.362-0.599-7.382   c-0.339-3.645-0.578-7.066-0.839-10.536c25.653,12.7,42.849,39.952,43.294,70.231c0.15,9.72-1.568,19.167-4.69,28.221   C81.902,272.488,76.855,272.262,72.644,271.57z"/><path d="M449.499,406.404c-0.214-0.774-0.253-1.582-0.602-2.32c-3.541-7.449-12.765-16.492-36.566-17.275   c-21.659-0.709-41.031-10.216-52.191-16.951c-0.605-0.629-1.337-1.082-2.156-1.352c-4.767-3.009-7.756-5.276-7.79-5.305   l-63.414-54.89c-4.241-3.638-10.514-3.022-14.028,1.413l-11.022,13.927c-4.392,5.681-28.248,33.391-67.697,20.587   c-0.326-0.108-0.649-0.063-0.975-0.105L172.799,326.6c-4.255-3.667-10.569-3-14.014,1.406l-11.036,13.935   c-4.639,6.007-29.909,35.137-71.567,19.224c-4.214-1.616-8.922-0.449-11.873,3.029c-2.677,3.159-4.365,7.217-4.735,11.413   l-4.214,46.825c-0.117,0.915-0.631,8.039,3.006,15.065c-3.555,8.579-4.543,23.547-4.543,23.746c0,3.029,1.167,5.826,3.363,8.072   c9.155,9.333,37.994,8.971,74.738,7.493c6.904-0.275,12.971-0.507,17.391-0.507c6.987,0.101,18.722,1.13,28.399,2.043l8.29,0.768   c13.04,1.101,23.787,0.928,33.327,0.797c5.23-0.087,9.938-0.174,14.591,0.043c2.567,0.101,5.779,0.246,9.347,0.246   c1.167,0,2.375-0.014,3.596-0.058c42.262-1.29,72.789-14.072,73.695-14.464c2.937-1.005,5.417-2.401,7.663-3.994l5.199-0.063   c5.216-0.087,9.869-0.159,14.453,0.043c2.567,0.101,5.792,0.246,9.375,0.246c1.167,0,2.361-0.014,3.596-0.058   c42.262-1.29,72.789-14.072,73.695-14.464c7.741-2.652,13.108-7.377,15.963-14.072c5.147-12.101-0.467-25.898-0.714-26.478   C449.719,406.669,449.582,406.563,449.499,406.404z M270.541,331.02l10.061-12.703l62.618,54.202   c0.353,0.285,3.157,2.437,7.556,5.303l0.393,9.255l-84.722-51.294C268.32,333.778,269.732,332.073,270.541,331.02z    M257.443,344.027l18.905,11.445c-10.207,5.632-27.383,12.021-54.09,13.93l-11.685-10.112   C231.312,360.413,247.138,352.15,257.443,344.027z M156.561,349.317l10.061-12.703l62.632,54.195   c0.353,0.285,3.157,2.437,7.556,5.303l0.394,9.263l-84.73-51.304C154.331,352.079,155.741,350.381,156.561,349.317z    M248.349,402.836c12.514,6.567,30.026,13.476,49.644,14.118c14.275,0.478,23.815,4.29,26.875,10.739l-0.81,2.304   c-25.132,13.145-56.386,19.507-90.056,18.681c-8.126-0.232-16.197-0.855-24.693-1.913c-2.455-0.304-4.924-0.44-7.385-0.697   c14.137-19.197,41.943-24.252,42.249-24.317c0.596-0.101,1.132-0.344,1.644-0.62c0.091-0.049,0.192-0.051,0.281-0.105   c0.773-0.471,1.361-1.166,1.84-1.944c0.057-0.094,0.163-0.13,0.216-0.229c0.081-0.149,0.081-0.318,0.149-0.471   c0.179-0.401,0.305-0.808,0.395-1.249c0.069-0.337,0.119-0.659,0.131-0.998c0.006-0.171,0.073-0.325,0.065-0.499L248.349,402.836z    M189.338,444.879c-0.609-0.042-1.216-0.133-1.826-0.172l-55.026-3.144c-5.763-10.523-24.07-29.111-46.368-34.363   c-6.606-1.553-10.073-4.55-12.161-7.793c6.498,0.426,12.869,0.764,18.681,0.764c43.758,0,68.437-11.123,80.983-19.606   l55.048,33.324C216.319,418.32,198.915,427.468,189.338,444.879z M70.773,376.723c0.151-1.696,0.824-3.319,1.578-4.398   c32.916,12.563,57.104,1.059,71.129-10.004l18.802,11.382c-14.043,7.73-42.079,17.579-91.578,13.695   c-0.006,0-0.408-0.056-0.878-0.155L70.773,376.723z M66.532,423.823l1.247-13.853c3.453,3.7,8.401,7.058,15.896,8.824   c15.127,3.556,27.417,14.198,34.14,21.93l-36.322-2.075c-5.792-0.304-9.965-2-12.381-5.029   C65.914,429.606,66.505,424.084,66.532,423.823z M326.255,446.779c-0.72,1.665-1.832,3.063-3.267,4.295   c-0.238,0.187-0.52,0.309-0.727,0.532c-1.497,1.13-3.249,2.127-5.532,2.912c-0.288,0.13-30.046,12.536-70.181,13.768   c-4.639,0.13-8.963-0.058-12.614-0.217c-4.406-0.188-9.32-0.116-14.769-0.029c-9.293,0.13-19.779,0.304-32.256-0.754l-8.194-0.754   c-9.745-0.928-21.879-2.087-29.072-2.116c-4.255-0.014-10.898,0.232-18.146,0.536c-16.897,0.638-61.863,2.435-66.42-3.681   c0-2.457,1.123-9.313,2.265-14.445c3.776,2.092,8.248,3.398,13.575,3.677l105.937,6.058c7.055,0.435,14.11,1.13,21.138,2   c8.84,1.101,17.254,1.754,25.709,1.971c2.347,0.072,4.653,0.101,6.959,0.101c32.623,0,61.735-6.533,86.771-19.29   C327.332,443.181,327.001,445.046,326.255,446.779z M318.744,408.717c-5.204-1.961-11.824-3.336-20.393-3.618   c-21.711-0.712-41.119-10.267-52.262-17.004c-0.566-0.554-1.24-0.969-1.977-1.24c-4.825-3.04-7.85-5.335-7.885-5.364l-1.583-1.37   c27.35-3.558,43.985-11.791,52.963-17.833l55.071,33.338C335.563,398.181,326.846,402.377,318.744,408.717z M335.505,424.653   c-0.213-0.755-0.247-1.547-0.589-2.264c-1.118-2.364-2.905-4.87-5.447-7.238c13.562-8.943,28.507-11.652,28.685-11.689   c0.6-0.102,1.142-0.347,1.657-0.628c0.081-0.044,0.171-0.046,0.25-0.094c0.776-0.472,1.366-1.168,1.846-1.951   c0.057-0.093,0.161-0.128,0.214-0.226c0.082-0.149,0.081-0.316,0.148-0.468c0.179-0.401,0.306-0.81,0.396-1.252   c0.069-0.337,0.119-0.659,0.131-0.998c0.006-0.171,0.073-0.325,0.065-0.499l-0.546-12.798c12.516,6.57,30.033,13.483,49.658,14.131   c14.261,0.464,23.801,4.275,26.876,10.739l0.179-0.095c0.005,0.439,0.161,0.874,0.262,1.313l-1.265,1.072   c-25.489,13.333-55.879,19.594-90.07,18.681c-3.86-0.105-7.35-0.314-10.642-0.552c-0.694-2.691-1.408-4.511-1.492-4.709   C335.746,424.942,335.598,424.825,335.505,424.653z M440.222,428.49c-1.51,3.536-4.502,6.014-9.512,7.739   c-0.288,0.13-30.046,12.536-70.181,13.768c-4.722,0.116-9.004-0.058-12.614-0.217c-3.288-0.152-6.934-0.128-10.775-0.076   c0.879-2.64,1.374-5.298,1.492-7.874c2.844,0.179,5.826,0.331,9.036,0.414c2.333,0.072,4.653,0.101,6.959,0.101   c32.623,0,61.735-6.533,86.771-19.29C441.299,424.891,440.968,426.756,440.222,428.49z"/></g><text x="0" y="527" fill="#000000" font-size="5px" font-weight="bold" font-family="'Helvetica Neue', Helvetica, Arial-Unicode, Arial, Sans-serif">Created by Shakeel Ch.</text><text x="0" y="532" fill="#000000" font-size="5px" font-weight="bold" font-family="'Helvetica Neue', Helvetica, Arial-Unicode, Arial, Sans-serif">from the Noun Project</text></svg>