<svg xmlns="http://www.w3.org/2000/svg" width="19.922" height="17.893" viewBox="0 0 19.922 17.893">
  <path id="_008" data-name="008" d="M11.668,41.706c5.639-2,7.7-4.465,8.439-5.8l-.673-.289a.243.243,0,0,1-.022-.436L22,33.738a.243.243,0,0,1,.354.152l.739,2.87a.243.243,0,0,1-.332.284l-.81-.348a12.428,12.428,0,0,1-10.285,5.01Zm12.208-2.487H24.6v9.63a.242.242,0,0,0,.241.241h2.072a.242.242,0,0,0,.241-.241v-9.63h.727a.291.291,0,0,0,.229-.472L26.34,36.484a.583.583,0,0,0-.918,0l-1.775,2.263A.291.291,0,0,0,23.876,39.219Zm-3.563,1.888a.242.242,0,0,0-.241.241v7.5a.242.242,0,0,0,.241.241h2.072a.242.242,0,0,0,.241-.241v-7.5a.242.242,0,0,0-.241-.241Zm-4.531,1.888a.242.242,0,0,0-.241.241v5.613a.242.242,0,0,0,.241.241h2.072a.242.242,0,0,0,.241-.241V43.236a.242.242,0,0,0-.241-.241Zm12.125,7.574H9.531V34.851a.515.515,0,1,0-1.031,0V51.084a.515.515,0,0,0,.515.515H27.906a.515.515,0,1,0,0-1.031ZM11.25,49.091h2.072a.242.242,0,0,0,.241-.241V45.124a.242.242,0,0,0-.241-.241H11.25a.242.242,0,0,0-.241.241v3.726A.242.242,0,0,0,11.25,49.091Z" transform="translate(-8.5 -33.707)" fill="#646d82"/>
</svg>
