<svg xmlns="http://www.w3.org/2000/svg" width="19.343" height="18.443" viewBox="0 0 19.343 18.443">
  <g id="Layer_2" data-name="Layer 2" transform="translate(-1 -1.804)">
    <path id="Path_465" data-name="Path 465" d="M19.189,8.32a2.527,2.527,0,0,1-1.82-1.237,2.561,2.561,0,0,1-.172-2.2,1.2,1.2,0,0,0-.355-1.344A9.495,9.495,0,0,0,14,1.879a1.188,1.188,0,0,0-1.348.377,2.51,2.51,0,0,1-3.972,0,1.188,1.188,0,0,0-1.348-.377A9.537,9.537,0,0,0,4.694,3.373a1.213,1.213,0,0,0-.374,1.383,2.548,2.548,0,0,1-.177,2.272A2.513,2.513,0,0,1,2.225,8.236,1.2,1.2,0,0,0,1.181,9.2,9.242,9.242,0,0,0,1,11.021a9.361,9.361,0,0,0,.123,1.526,1.2,1.2,0,0,0,1.051,1.006,2.513,2.513,0,0,1,1.943,1.255,2.548,2.548,0,0,1,.107,2.322,1.187,1.187,0,0,0,.329,1.415,9.565,9.565,0,0,0,2.811,1.63,1.281,1.281,0,0,0,.406.071,1.184,1.184,0,0,0,.967-.506A2.49,2.49,0,0,1,10.8,18.65a2.522,2.522,0,0,1,2.025,1.026,1.181,1.181,0,0,0,1.393.4A9.658,9.658,0,0,0,16.8,18.52a1.207,1.207,0,0,0,.348-1.37,2.548,2.548,0,0,1,.142-2.257,2.514,2.514,0,0,1,1.876-1.243,1.2,1.2,0,0,0,1.012-.987,9.478,9.478,0,0,0,.168-1.643,9.385,9.385,0,0,0-.162-1.735,1.184,1.184,0,0,0-.993-.965Zm-5.293,2.7a3.224,3.224,0,1,1-3.224-3.246A3.235,3.235,0,0,1,13.9,11.021Z" transform="translate(0 0)" fill="#646d82"/>
  </g>
</svg>
