<svg xmlns="http://www.w3.org/2000/svg" width="17.762" height="20.209" viewBox="0 0 17.762 20.209">
  <g id="_010" data-name="010" transform="translate(-31)">
    <g id="Group_17" data-name="Group 17" transform="translate(33.368 8.289)">
      <g id="Group_16" data-name="Group 16">
        <path id="Path_466" data-name="Path 466" d="M92.776,210A1.778,1.778,0,0,0,91,211.776v4.815a1.776,1.776,0,0,0,3.552,0v-4.815A1.778,1.778,0,0,0,92.776,210Z" transform="translate(-91 -210)" fill="#d80003"/>
      </g>
    </g>
    <g id="Group_19" data-name="Group 19" transform="translate(31 9.566)">
      <g id="Group_18" data-name="Group 18">
        <path id="Path_467" data-name="Path 467" d="M32.184,242.865a2.938,2.938,0,0,1,.05-.5A1.773,1.773,0,0,0,31,244.049V246.5a1.773,1.773,0,0,0,1.235,1.683,2.937,2.937,0,0,1-.05-.5Z" transform="translate(-31 -242.366)" fill="#d80003"/>
      </g>
    </g>
    <g id="Group_21" data-name="Group 21" transform="translate(38.105 8.289)">
      <g id="Group_20" data-name="Group 20">
        <path id="Path_468" data-name="Path 468" d="M217.513,210a1.778,1.778,0,0,0-1.776,1.776v4.815a1.778,1.778,0,0,0,1.776,1.776,1.752,1.752,0,0,0,.509-.083,1.773,1.773,0,0,1-1.693,1.267h-1.885a1.776,1.776,0,1,0,0,1.184h1.885a2.964,2.964,0,0,0,2.96-2.96v-6A1.778,1.778,0,0,0,217.513,210Z" transform="translate(-211 -210)" fill="#d80003"/>
      </g>
    </g>
    <g id="Group_23" data-name="Group 23" transform="translate(47.527 9.566)">
      <g id="Group_22" data-name="Group 22">
        <path id="Path_469" data-name="Path 469" d="M449.722,242.366a2.936,2.936,0,0,1,.05.5v4.815a2.935,2.935,0,0,1-.05.5,1.773,1.773,0,0,0,1.235-1.683v-2.447A1.773,1.773,0,0,0,449.722,242.366Z" transform="translate(-449.722 -242.366)" fill="#d80003"/>
      </g>
    </g>
    <g id="Group_25" data-name="Group 25" transform="translate(31)">
      <g id="Group_24" data-name="Group 24">
        <path id="Path_470" data-name="Path 470" d="M39.881,0A8.891,8.891,0,0,0,31,8.881V8.9a2.932,2.932,0,0,1,1.211-.55,7.688,7.688,0,0,1,15.339,0,2.933,2.933,0,0,1,1.211.55V8.881A8.891,8.891,0,0,0,39.881,0Z" transform="translate(-31)" fill="#d80003"/>
      </g>
    </g>
  </g>
</svg>
