<svg xmlns="http://www.w3.org/2000/svg" width="19.382" height="16.311" viewBox="0 0 19.382 16.311">
  <g id="_005" data-name="005" transform="translate(0 -6.348)">
    <path id="Path_460" data-name="Path 460" d="M11.7,9.148a3.522,3.522,0,0,1,1.639,2.616A2.841,2.841,0,1,0,11.7,9.148Zm-1.862,5.82a2.842,2.842,0,1,0-2.843-2.842A2.843,2.843,0,0,0,9.834,14.968Zm1.206.194H8.628a3.644,3.644,0,0,0-3.64,3.64v2.95L5,21.8l.2.064a16.567,16.567,0,0,0,4.949.8,10.159,10.159,0,0,0,4.321-.811l.19-.1h.02V18.8A3.643,3.643,0,0,0,11.04,15.161Zm4.7-2.934H13.349a3.5,3.5,0,0,1-1.081,2.44,4.325,4.325,0,0,1,3.089,4.139v.909a9.794,9.794,0,0,0,3.815-.8l.19-.1h.02V15.866A3.644,3.644,0,0,0,15.742,12.227Zm-10.9-.194a2.824,2.824,0,0,0,1.512-.439A3.518,3.518,0,0,1,7.68,9.351c0-.053.008-.106.008-.16a2.842,2.842,0,1,0-2.842,2.842ZM7.4,14.667a3.505,3.505,0,0,1-1.08-2.427c-.089-.007-.177-.014-.267-.014H3.64A3.644,3.644,0,0,0,0,15.866v2.95l.007.045.2.064a17.064,17.064,0,0,0,4.1.77v-.891A4.326,4.326,0,0,1,7.4,14.667Z" fill="#646d82"/>
  </g>
</svg>
