<svg xmlns="http://www.w3.org/2000/svg" width="18.775" height="18.176" viewBox="0 0 18.775 18.176">
  <g id="_004" data-name="004" transform="translate(-2 -3.02)">
    <path id="Path_457" data-name="Path 457" d="M20.562,7.41V3.025H26.1V7.409a.183.183,0,0,1-.309.133L25.3,7.083a.183.183,0,0,0-.251,0l-.671.632a.183.183,0,0,1-.251,0l-.671-.632a.183.183,0,0,0-.251,0l-.671.632a.183.183,0,0,1-.251,0l-.673-.632a.183.183,0,0,0-.251,0l-.49.46a.183.183,0,0,1-.309-.133Z" transform="translate(-13.117 -0.003)" fill="#646d82"/>
    <path id="Path_458" data-name="Path 458" d="M42.827,36.573l-.443-.079a.3.3,0,0,1-.238-.223,3.931,3.931,0,0,0-.4-.953.3.3,0,0,1,.009-.329l.259-.37a.3.3,0,0,0-.033-.384l-.605-.605A.3.3,0,0,0,41,33.6l-.37.259a.3.3,0,0,1-.327.01,3.84,3.84,0,0,0-.953-.4.306.306,0,0,1-.225-.239l-.077-.443a.3.3,0,0,0-.3-.248h-.858a.3.3,0,0,0-.3.248l-.079.443a.3.3,0,0,1-.223.239,3.869,3.869,0,0,0-.953.394.3.3,0,0,1-.327-.01l-.372-.257a.3.3,0,0,0-.384.033l-.605.607a.3.3,0,0,0-.034.384l.259.37a.306.306,0,0,1,.01.329,3.816,3.816,0,0,0-.4.953.3.3,0,0,1-.239.223l-.443.079a.3.3,0,0,0-.248.3v.858a.3.3,0,0,0,.248.3l.443.077a.306.306,0,0,1,.239.225,3.806,3.806,0,0,0,.4.952.306.306,0,0,1-.01.329l-.259.37a.3.3,0,0,0,.034.384l.605.607a.3.3,0,0,0,.384.034l.372-.259a.3.3,0,0,1,.327-.01,3.93,3.93,0,0,0,.953.4.3.3,0,0,1,.223.238l.079.443a.3.3,0,0,0,.3.248h.858a.3.3,0,0,0,.3-.248l.077-.443a.3.3,0,0,1,.225-.238,3.955,3.955,0,0,0,.953-.4.3.3,0,0,1,.327.009L41,41a.3.3,0,0,0,.385-.033l.605-.607a.3.3,0,0,0,.033-.384l-.259-.37a.3.3,0,0,1-.009-.329,3.92,3.92,0,0,0,.4-.952.3.3,0,0,1,.238-.225l.443-.077a.3.3,0,0,0,.248-.3v-.858a.3.3,0,0,0-.248-.3Zm-4.51,2.761A2.037,2.037,0,1,1,40.354,37.3,2.036,2.036,0,0,1,38.317,39.334Z" transform="translate(-22.301 -20.859)" fill="#646d82"/>
    <path id="Path_459" data-name="Path 459" d="M16.753,3.02h-3.2V7.4a.758.758,0,0,1-.759.759.743.743,0,0,1-.517-.207l-.218-.2-.4.379a.763.763,0,0,1-1.038,0l-.4-.379-.4.379a.763.763,0,0,1-1.041,0l-.4-.377-.221.207A.759.759,0,0,1,6.87,7.407V3.02h-3.2A1.675,1.675,0,0,0,2,4.694v13.08a1.672,1.672,0,0,0,1.673,1.67H11.7a.869.869,0,0,1,.144-.655l.161-.23a4.353,4.353,0,0,1-.325-.782l-.273-.046a.876.876,0,0,1-.724-.862v-.86a.87.87,0,0,1,.724-.86l.273-.049A4.534,4.534,0,0,1,12,14.318l-.161-.23a.87.87,0,0,1,.1-1.121l.6-.6a.865.865,0,0,1,.618-.256.877.877,0,0,1,.5.158l.23.158a4.628,4.628,0,0,1,.779-.322l.049-.276a.876.876,0,0,1,.862-.722h.857a.876.876,0,0,1,.862.724l.049.273a4.174,4.174,0,0,1,.779.325l.23-.161a.382.382,0,0,1,.057-.034V4.694a1.672,1.672,0,0,0-1.67-1.673ZM7.028,17.6H3.88a.287.287,0,1,1,0-.575H7.028a.287.287,0,1,1,0,.575Zm0-1.575H3.88a.287.287,0,0,1,0-.575H7.028a.287.287,0,1,1,0,.575Z" fill="#646d82"/>
  </g>
</svg>
