<svg xmlns="http://www.w3.org/2000/svg" width="19.021" height="18.948" viewBox="0 0 19.021 18.948">
  <path id="_01" data-name="01" d="M26.263,19.119l-2.75,1.588L31.5,25.321l2.95-1.7-7.792-4.5a.391.391,0,0,0-.4,0Zm7.671,10.946A3.239,3.239,0,1,1,30.694,33.3,3.239,3.239,0,0,1,33.934,30.065Zm-.425,3.525-.724-.724a.48.48,0,0,0-.679.679l1.065,1.065a.481.481,0,0,0,.679,0c.642-.642,1.276-1.291,1.915-1.935a.48.48,0,1,0-.68-.676ZM27.9,35.7l1.659-.958v-1.07l-1.659.958ZM21.1,22.1l7.992,4.614-2.631,1.519-7.992-4.614Zm-2.95,2.072,7.991,4.614v9.228l-7.791-4.5a.39.39,0,0,1-.2-.346Zm8.631,13.842V28.784l2.63-1.519v3.41l2.41-1.391v-3.41l2.95-1.7v5.347a3.879,3.879,0,0,0-3.92,6.145Z" transform="translate(-18.152 -19.064)" fill="#646d82" fill-rule="evenodd"/>
</svg>
