<svg xmlns="http://www.w3.org/2000/svg" width="18.812" height="18.886" viewBox="0 0 18.812 18.886">
  <g id="_002" data-name="002" transform="translate(-1 0)">
    <path id="Path_439" data-name="Path 439" d="M275.426,250,271,251.475l4.426,1.475,4.426-1.475Z" transform="translate(-260.04 -240.778)" fill="#646d82"/>
    <path id="Path_440" data-name="Path 440" d="M1,251.475l4.426,1.475,4.426-1.475L5.426,250Z" transform="translate(0 -240.778)" fill="#646d82"/>
    <path id="Path_441" data-name="Path 441" d="M140.6.029a.553.553,0,0,0-.35,0L136,1.446l4.426,1.475,4.426-1.475Z" transform="translate(-130.02)" fill="#646d82"/>
    <path id="Path_442" data-name="Path 442" d="M136,328.645l3.873-1.291v-5.731L136,322.914Z" transform="translate(-130.02 -309.759)" fill="#646d82"/>
    <path id="Path_443" data-name="Path 443" d="M1,326.956a.553.553,0,0,0,.378.525l3.495,1.165v-5.731L1,321.623Z" transform="translate(0 -309.759)" fill="#646d82"/>
    <path id="Path_444" data-name="Path 444" d="M271,327.354l3.873,1.291v-5.731L271,321.623Z" transform="translate(-260.04 -309.759)" fill="#646d82"/>
    <path id="Path_445" data-name="Path 445" d="M406,328.645l3.495-1.165a.553.553,0,0,0,.378-.525v-5.333L406,322.914Z" transform="translate(-390.061 -309.759)" fill="#646d82"/>
    <path id="Path_446" data-name="Path 446" d="M136,76.646l3.873,1.291V72.1L136,70.811Z" transform="translate(-130.02 -68.198)" fill="#646d82"/>
    <path id="Path_447" data-name="Path 447" d="M274.873,76.646V70.811L271,72.1v5.835Z" transform="translate(-260.04 -68.199)" fill="#646d82"/>
  </g>
</svg>
