<svg xmlns="http://www.w3.org/2000/svg" width="18.702" height="19.22" viewBox="0 0 18.702 19.22">
  <g id="_003" data-name="003" transform="translate(-73.3 -41.495)">
    <g id="Group_15" data-name="Group 15" transform="translate(73.3 41.495)">
      <g id="Group_14" data-name="Group 14">
        <path id="Path_448" data-name="Path 448" d="M76.441,255.21a.23.23,0,0,1,.229.229v3.872h3.566l.831-4.81-.53-.77-.586.368a.239.239,0,0,1-.123.034.227.227,0,0,1-.179-.084L76.771,250.4a5.045,5.045,0,0,0-.5.218,4.731,4.731,0,0,0-1.769,1.551,4.446,4.446,0,0,0-.552,1.205A24.239,24.239,0,0,0,73.3,259.3h2.918v-3.872A.216.216,0,0,1,76.441,255.21Z" transform="translate(-73.3 -240.097)" fill="#646d82" fill-rule="evenodd"/>
        <path id="Path_449" data-name="Path 449" d="M205.7,331.637h2.182l-.8-4.637h-.58Z" transform="translate(-197.446 -312.423)" fill="#646d82" fill-rule="evenodd"/>
        <path id="Path_450" data-name="Path 450" d="M210.939,298.033l.485-.636-.937-.6-.787.5.508.731Z" transform="translate(-201.224 -283.551)" fill="#646d82" fill-rule="evenodd"/>
        <path id="Path_451" data-name="Path 451" d="M147.8,247.66l-2.751-2.583a5,5,0,0,0-1.35.156l2.65,3.353Z" transform="translate(-139.243 -234.617)" fill="#646d82" fill-rule="evenodd"/>
        <path id="Path_452" data-name="Path 452" d="M239.177,253.666a.255.255,0,0,1-.123-.033l-.435-.273-.519.681.831,4.8h3.85v-3.872a.23.23,0,0,1,.229-.229.226.226,0,0,1,.229.229v3.872h2.634a24.237,24.237,0,0,0-.647-5.926,4.538,4.538,0,0,0-.552-1.205,4.731,4.731,0,0,0-1.769-1.551,4.586,4.586,0,0,0-.631-.262l-2.918,3.694A.258.258,0,0,1,239.177,253.666Z" transform="translate(-227.171 -239.625)" fill="#646d82" fill-rule="evenodd"/>
        <path id="Path_453" data-name="Path 453" d="M234.624,245.184a4.851,4.851,0,0,0-1.222-.123l-.926.826-1.975,1.758,1.451.921Z" transform="translate(-220.545 -234.601)" fill="#646d82" fill-rule="evenodd"/>
        <path id="Path_454" data-name="Path 454" d="M160.365,44.374a2.036,2.036,0,0,0-.569-1.066,3.148,3.148,0,0,0-.324-.262,2.857,2.857,0,0,1-.413-.335,1.491,1.491,0,0,1-.279-.474,1.5,1.5,0,0,0-.145-.285.922.922,0,0,0-.536-.312,4.97,4.97,0,0,0-.926-.134,6.152,6.152,0,0,0-1.657.128,6.225,6.225,0,0,0-2.745,1.289,3.226,3.226,0,0,0-.714,1.01,4.72,4.72,0,0,0,.017,1.389v.028a1.468,1.468,0,0,1,.675-.776,3.108,3.108,0,0,1,1.283-.273l.05-.006c1.149-.078,2.232-.056,2.243-.056h.022a1.484,1.484,0,0,0,.887-.167,1.176,1.176,0,0,0,.379-.4.26.26,0,0,1,.173-.123.25.25,0,0,1,.061-.006.6.6,0,0,1,.335.145l.011.006a3.263,3.263,0,0,1,.441.363,4.864,4.864,0,0,1,.363.424,7.47,7.47,0,0,1,.792,1.222c.106-.156.229-.346.268-.4A1.519,1.519,0,0,0,160.365,44.374Z" transform="translate(-146.743 -41.495)" fill="#646d82" fill-rule="evenodd"/>
        <path id="Path_455" data-name="Path 455" d="M194.381,227.367a3.478,3.478,0,0,1-.664.234,3.339,3.339,0,0,1-.764.084,3.682,3.682,0,0,1-.776-.084,3.51,3.51,0,0,1-.831-.3,1.56,1.56,0,0,1,.006.234A3.456,3.456,0,0,1,191,228.89l1.83,1.719,1.914-1.707a3.382,3.382,0,0,1-.368-1.367C194.376,227.473,194.381,227.417,194.381,227.367Z" transform="translate(-183.572 -217.745)" fill="#646d82" fill-rule="evenodd"/>
        <path id="Path_456" data-name="Path 456" d="M156.765,89.37a6.435,6.435,0,0,0-.964-1.261,3.161,3.161,0,0,0-.388-.379,3.441,3.441,0,0,0-.462-.312l-.013-.006a.107.107,0,0,0-.027-.011,1.813,1.813,0,0,1-.522.407,2.717,2.717,0,0,1-1.365.234H153c-.013,0-1.278-.022-2.637.056l-.06.006a4.044,4.044,0,0,0-1.325.223,1.474,1.474,0,0,0-.756,1.149.246.246,0,0,1-.12.162,1.127,1.127,0,0,0-.522,1.25A1.5,1.5,0,0,0,148.66,91.9a.247.247,0,0,1,.194.184,3.74,3.74,0,0,0,.228.8,3.665,3.665,0,0,0,1.272,1.512c.087.056.174.117.268.167a4.726,4.726,0,0,0,1.365.513,4.439,4.439,0,0,0,1.606,0,3.863,3.863,0,0,0,1.158-.424,1,1,0,0,0,.087-.05,3.749,3.749,0,0,0,.817-.631,4.078,4.078,0,0,0,1.064-1.931.262.262,0,0,1,.221-.179,1.427,1.427,0,0,0,1.017-1.272.812.812,0,0,0-.509-.887.458.458,0,0,0-.147-.028h-.147a.328.328,0,0,1-.174-.05s-.007,0-.007-.006a.006.006,0,0,1-.007-.006l-.013-.011a.813.813,0,0,1-.187-.24Z" transform="translate(-143.396 -84.839)" fill="#646d82" fill-rule="evenodd"/>
      </g>
    </g>
  </g>
</svg>
